<svg aria-hidden="true" style="position: absolute; width: 0; height: 0; overflow: hidden;" version="1.1" xmlns="http://www.w3.org/2000/svg" xmlns:xlink="http://www.w3.org/1999/xlink">
<defs>
<symbol id="icon-envelope" viewBox="0 0 32 32">
<path d="M31.939 7.389l-11.224 11.224c-1.208 1.205-2.874 1.949-4.715 1.949s-3.507-0.745-4.715-1.95l-11.224-11.224c-0.019 0.211-0.061 0.401-0.061 0.611v16c0.005 3.68 2.987 6.662 6.666 6.667h18.667c3.68-0.005 6.662-2.987 6.667-6.666v-16c0-0.209-0.043-0.4-0.061-0.611z"></path>
<path d="M18.829 16.728l12.179-12.18c-1.181-1.935-3.279-3.208-5.674-3.215h-18.668c-2.396 0.007-4.493 1.28-5.658 3.186l-0.017 0.029 12.179 12.18c0.725 0.722 1.725 1.169 2.829 1.169s2.104-0.446 2.829-1.169l-0 0z"></path>
</symbol>
<symbol id="icon-linkedin" viewBox="0 0 32 32">
<path d="M30.669 28.779h0.303l-0.58-0.877c0.355 0 0.543-0.225 0.545-0.501 0-0.011 0-0.023-0.001-0.033 0-0.376-0.227-0.556-0.692-0.556h-0.752v1.968h0.283v-0.857h0.348l0.547 0.857zM30.103 27.699h-0.328v-0.665h0.416c0.215 0 0.46 0.035 0.46 0.316 0 0.323-0.248 0.349-0.549 0.349z"></path>
<path d="M23.055 25.431h-4.009v-6.279c0-1.497-0.027-3.424-2.085-3.424-2.088 0-2.408 1.631-2.408 3.316v6.387h-4.008v-12.912h3.849v1.764h0.053c0.785-1.341 2.244-2.143 3.797-2.085 4.064 0 4.812 2.673 4.812 6.149l-0.001 7.084zM6.020 10.753c-1.285 0-2.327-1.041-2.327-2.327s1.041-2.327 2.327-2.327c1.285 0 2.327 1.041 2.327 2.327s-1.041 2.327-2.327 2.327v0zM8.024 25.431h-4.013v-12.912h4.013v12.912zM25.053 2.377h-23.057c-1.089-0.012-1.983 0.861-1.996 1.951v23.152c0.013 1.091 0.907 1.964 1.996 1.952h23.057c1.092 0.013 1.989-0.86 2.004-1.952v-23.153c-0.016-1.092-0.913-1.965-2.004-1.951z"></path>
<path d="M30.137 25.935c-1.019 0.009-1.837 0.844-1.827 1.863 0.009 1.019 0.844 1.837 1.863 1.827 1.019-0.009 1.837-0.844 1.827-1.863-0.009-1.005-0.823-1.817-1.827-1.827h-0.036zM30.18 29.412c-0.893 0.015-1.672-0.696-1.687-1.589s0.697-1.629 1.591-1.644c0.893-0.015 1.629 0.697 1.644 1.591 0 0.009 0 0.017 0 0.027 0.019 0.873-0.675 1.597-1.548 1.616h-0.041z"></path>
</symbol>
<symbol id="icon-phone" viewBox="0 0 32 32">
<path d="M30.667 14.667c-0.736 0-1.333-0.597-1.333-1.333v0c-0.006-5.889-4.778-10.661-10.666-10.667h-0.001c-0.736 0-1.333-0.597-1.333-1.333s0.597-1.333 1.333-1.333v0c7.36 0.008 13.325 5.973 13.333 13.333v0.001c0 0.736-0.597 1.333-1.333 1.333v0zM26.667 13.333c0-4.418-3.582-8-8-8v0c-0.736 0-1.333 0.597-1.333 1.333s0.597 1.333 1.333 1.333v0c2.946 0 5.333 2.388 5.333 5.333v0c0 0.736 0.597 1.333 1.333 1.333s1.333-0.597 1.333-1.333v0zM29.577 29.552l1.213-1.399c0.745-0.747 1.206-1.779 1.206-2.918s-0.461-2.171-1.206-2.918l0 0c-0.041-0.041-3.249-2.509-3.249-2.509-0.74-0.705-1.744-1.14-2.85-1.14-1.11 0-2.117 0.437-2.86 1.149l0.001-0.001-2.541 2.141c-4.203-1.771-7.479-5.052-9.201-9.146l-0.042-0.112 2.133-2.533c0.711-0.741 1.149-1.749 1.149-2.86 0-1.106-0.434-2.11-1.141-2.851l0.002 0.002s-2.471-3.204-2.512-3.245c-0.745-0.749-1.776-1.213-2.915-1.213-1.109 0-2.115 0.439-2.854 1.153l0.001-0.001-1.533 1.333c-9.059 10.509 10.448 29.865 21.304 29.517 0.014 0 0.031 0 0.048 0 2.288 0 4.358-0.936 5.846-2.447l0.001-0.001z"></path>
</symbol>
<symbol id="icon-telegram" viewBox="0 0 32 32">
<path d="M16 0c-8.836 0-16 7.164-16 16s7.164 16 16 16 16-7.164 16-16-7.164-16-16-16zM23.416 10.881c-0.24 2.529-1.283 8.669-1.812 11.503-0.224 1.2-0.667 1.601-1.093 1.64-0.929 0.085-1.635-0.615-2.535-1.204-1.408-0.923-2.204-1.497-3.571-2.399-1.58-1.041-0.556-1.613 0.344-2.548 0.236-0.245 4.329-3.969 4.409-4.307 0.009-0.043 0.020-0.2-0.075-0.283s-0.232-0.055-0.331-0.032c-0.141 0.032-2.391 1.519-6.749 4.46-0.639 0.439-1.217 0.652-1.736 0.641-0.571-0.012-1.669-0.323-2.487-0.589-1.001-0.325-1.799-0.499-1.729-1.051 0.036-0.288 0.432-0.583 1.189-0.884 4.664-2.032 7.775-3.372 9.331-4.020 4.444-1.848 5.367-2.169 5.969-2.18 0.755-0.011 0.936 0.612 0.875 1.252z"></path>
</symbol>
</defs>
</svg>
